<svg width="27" height="22" viewBox="0 0 27 22" fill="none" xmlns="http://www.w3.org/2000/svg">
<path d="M9 10.125H2.37375C2.58283 8.73263 3.08001 7.39918 3.83354 6.20981C4.58706 5.02044 5.58037 4.00131 6.75 3.2175L8.76375 1.8675L7.52625 0L5.5125 1.35C3.81744 2.47959 2.42742 4.01013 1.4658 5.80581C0.504176 7.6015 0.000682973 9.60679 0 11.6438V19.125C0 19.7217 0.237053 20.294 0.65901 20.716C1.08097 21.1379 1.65326 21.375 2.25 21.375H9C9.59674 21.375 10.169 21.1379 10.591 20.716C11.0129 20.294 11.25 19.7217 11.25 19.125V12.375C11.25 11.7783 11.0129 11.206 10.591 10.784C10.169 10.3621 9.59674 10.125 9 10.125ZM24.75 10.125H18.1238C18.3328 8.73263 18.83 7.39918 19.5835 6.20981C20.3371 5.02044 21.3304 4.00131 22.5 3.2175L24.5138 1.8675L23.2875 0L21.2625 1.35C19.5674 2.47959 18.1774 4.01013 17.2158 5.80581C16.2542 7.6015 15.7507 9.60679 15.75 11.6438V19.125C15.75 19.7217 15.9871 20.294 16.409 20.716C16.831 21.1379 17.4033 21.375 18 21.375H24.75C25.3467 21.375 25.919 21.1379 26.341 20.716C26.7629 20.294 27 19.7217 27 19.125V12.375C27 11.7783 26.7629 11.206 26.341 10.784C25.919 10.3621 25.3467 10.125 24.75 10.125Z" fill="#9558AC"/>
</svg>
