<svg width="20" height="20" viewBox="0 0 20 20" fill="none" xmlns="http://www.w3.org/2000/svg">
<path d="M16.95 7.76667L5.2833 1.93334C4.82287 1.70418 4.30298 1.6226 3.79449 1.69971C3.28601 1.77683 2.81368 2.0089 2.4419 2.36427C2.07013 2.71964 1.81701 3.18102 1.71704 3.68551C1.61707 4.19 1.67513 4.71305 1.8833 5.18334L3.8833 9.65834C3.92868 9.76653 3.95205 9.88268 3.95205 10C3.95205 10.1173 3.92868 10.2335 3.8833 10.3417L1.8833 14.8167C1.71388 15.1973 1.64226 15.6142 1.67494 16.0295C1.70763 16.4448 1.84358 16.8454 2.07045 17.1948C2.29731 17.5442 2.6079 17.8313 2.97398 18.0302C3.34006 18.229 3.75003 18.3332 4.16663 18.3333C4.55682 18.3294 4.9412 18.2383 5.29163 18.0667L16.9583 12.2333C17.3721 12.0252 17.72 11.7061 17.963 11.3117C18.2061 10.9174 18.3348 10.4632 18.3348 10C18.3348 9.53676 18.2061 9.08263 17.963 8.68827C17.72 8.29392 17.3721 7.97485 16.9583 7.76667H16.95ZM16.2083 10.7417L4.54163 16.575C4.38843 16.6486 4.2164 16.6735 4.04862 16.6465C3.88083 16.6196 3.7253 16.5419 3.60289 16.424C3.48048 16.3062 3.39703 16.1537 3.36374 15.987C3.33045 15.8204 3.3489 15.6475 3.41663 15.4917L5.4083 11.0167C5.43408 10.9569 5.45634 10.8957 5.47496 10.8333H11.2166C11.4376 10.8333 11.6496 10.7455 11.8059 10.5893C11.9622 10.433 12.05 10.221 12.05 10C12.05 9.77899 11.9622 9.56703 11.8059 9.41075C11.6496 9.25447 11.4376 9.16667 11.2166 9.16667H5.47496C5.45634 9.10431 5.43408 9.0431 5.4083 8.98334L3.41663 4.50834C3.3489 4.35247 3.33045 4.17963 3.36374 4.01298C3.39703 3.84633 3.48048 3.69384 3.60289 3.57596C3.7253 3.45808 3.88083 3.38045 4.04862 3.35347C4.2164 3.32648 4.38843 3.35145 4.54163 3.42501L16.2083 9.25834C16.3448 9.32827 16.4594 9.43452 16.5393 9.56538C16.6193 9.69624 16.6617 9.84663 16.6617 10C16.6617 10.1534 16.6193 10.3038 16.5393 10.4346C16.4594 10.5655 16.3448 10.6717 16.2083 10.7417Z" fill="#B068CD"/>
</svg>
